<svg data-name="18" xmlns="http://www.w3.org/2000/svg" width="49.83" height="40.5"><g data-name="Layer 2"><path data-name="Path 51" d="M48.83 0H1a1 1 0 00-1 1v38.5a1 1 0 001 1h47.83a1 1 0 001-1V1a1 1 0 00-1-1zM23.92 26.71a6.54 6.54 0 010-12.92zm2-12.92a6.54 6.54 0 010 12.92zM2 13.33h4.92v14H2zm0 16h5.92a1 1 0 001-1v-16a1 1 0 00-1-1H2V2h21.92v9.77a8.54 8.54 0 000 17v9.73H2zm23.92 9.17v-9.77a8.54 8.54 0 000-17V2h21.91v9.33h-5.91a1 1 0 00-1 1v16a1 1 0 001 1h5.91v9.17zm21.91-11.17h-4.91v-14h4.91z" fill="#74767b"/></g></svg>