<svg xmlns="http://www.w3.org/2000/svg" width="40.555" height="44.225"><g data-name="12"><g data-name="Layer 2" fill="#74767b"><path data-name="Path 29" d="M1.972 20.544a1.002 1.002 0 00-1.94.5c1.88 7.25 3.38 14.39 1.14 21.88a1 1 0 00.67 1.24.92.92 0 00.29 0 1 1 0 001-.71 27 27 0 00.88-4h1.96a16.639 16.639 0 01.08-2h-1.88c.07-.91.1-1.81.09-2.71h1.94c0-.71.06-1.38.09-2h-2.1a66.08 66.08 0 00-2.22-12.2z"/><path data-name="Path 30" d="M14.222 32.794h-3.66c-.05.63-.11 1.31-.16 2h2.82v2.71h-3.05c-.06.8-.12 1.5-.17 2h3.22v3.7a1 1 0 002 0v-9.41a1 1 0 00-1-1z"/><path data-name="Path 31" d="M39.752 19.824a1 1 0 00-1.22.72 65.26 65.26 0 00-2.25 12.25h-2.1c0 .62.06 1.29.09 2h1.94c0 .9 0 1.8.09 2.71h-1.92c0 .66.05 1.33.08 2h2.07a29.84 29.84 0 00.88 4 1.015 1.015 0 101.96-.53c-2.24-7.49-.74-14.63 1.14-21.88a1 1 0 00-.76-1.27z"/><path data-name="Path 32" d="M27.242 37.504v-2.71h2.83c-.06-.69-.11-1.37-.16-2h-3.67a1 1 0 00-1 1v9.41a1 1 0 002 0v-3.7h3.23c-.05-.5-.11-1.2-.18-2z"/><path data-name="Path 33" d="M34.182 26.334a1 1 0 000-2H6.292a1 1 0 000 2h2.19l-1.79 16.77a1 1 0 00.89 1.1h.1a1 1 0 001-.89l1.81-17h19.48l1.81 17a1 1 0 001 .89h.1a1 1 0 00.89-1.1l-1.8-16.77z"/><path data-name="Path 34" d="M10.102 17.154a9.08 9.08 0 007.73-4.29 1 1 0 00-1.34-1.4 7.12 7.12 0 01-9.58-10 1 1 0 00-1.35-1.35 9.12 9.12 0 004.54 17zm-6.26-12.52v.65a9.14 9.14 0 009.13 9.13h.34a7 7 0 01-3.18.75 7.11 7.11 0 01-6.29-10.53z"/></g></g></svg>