<svg xmlns="http://www.w3.org/2000/svg" width="43" height="37.371"><g data-name="2"><g data-name="Layer 2" fill="#74767b" transform="translate(0 -.04)"><path data-name="Path 2" d="M43 25a1 1 0 00-.07-.35v-.15L35.7 12.25a1 1 0 00-.87-.5h-6.58L22 .51a.24.24 0 00-.06-.08l-.1-.07a1.18 1.18 0 00-.27-.23 1.32 1.32 0 00-.3-.09h-14a1 1 0 00-.89.55L.11 12.8a.93.93 0 00-.1.42H0a.93.93 0 00.1.42L6.36 26a1 1 0 00.89.55h6.62l6.87 10.55a1.19 1.19 0 00.23.22l.17.08h.07a.73.73 0 00.25 0h14.1a1 1 0 00.87-.52l6.34-11.5v-.14A1.14 1.14 0 0043 25zm-2.74-1H29.32l-6.07-10.25h11zm-18.7 10.64l-6-9.18 6-10.7 6 10.23zm-.47-31.58L26 11.75h-4.68a1.18 1.18 0 00-.33.12 1 1 0 00-.26.23l-.06.08v.06l-2.72 4.89-2.42-3.93zM7.86 2h11.53l-5.65 10.25H2.63zM2.63 14.25h11.14l3 4.9-3 5.35h-6zM35.08 35.5h-11.7L29.3 26h11z"/><circle data-name="Ellipse 1" cx=".86" cy=".86" r=".86" transform="translate(8.4 3.66)"/><circle data-name="Ellipse 2" cx=".86" cy=".86" r=".86" transform="translate(13.47 3.66)"/><circle data-name="Ellipse 3" cx=".86" cy=".86" r=".86" transform="translate(26.81 14.97)"/><circle data-name="Ellipse 4" cx=".86" cy=".86" r=".86" transform="translate(31.79 14.97)"/><circle data-name="Ellipse 5" cx=".86" cy=".86" r=".86" transform="translate(28.75 17.74)"/><circle data-name="Ellipse 6" cx=".86" cy=".86" r=".86" transform="translate(33.73 17.74)"/><circle data-name="Ellipse 7" cx=".86" cy=".86" r=".86" transform="translate(30.47 20.81)"/><circle data-name="Ellipse 8" cx=".86" cy=".86" r=".86" transform="translate(35.45 20.81)"/><circle data-name="Ellipse 9" cx=".86" cy=".86" r=".86" transform="translate(5.71 8.72)"/><circle data-name="Ellipse 10" cx=".86" cy=".86" r=".86" transform="translate(9.77 6.26)"/><circle data-name="Ellipse 11" cx=".86" cy=".86" r=".86" transform="translate(11.29 8.72)"/></g></g></svg>