<svg xmlns="http://www.w3.org/2000/svg" width="36.17" height="45.5"><g data-name="19"><g data-name="Layer 2"><path data-name="Path 53" d="M35.17 30a1 1 0 000-2h-2.34V17.08h2.34a1 1 0 000-2H19.42v-3.79c1.19-.49 3.41-1.74 3.41-4.21 0-2.9-3.32-6.39-3.7-6.78a1 1 0 00-1.43 0C17.32.69 14 4.18 14 7.08c0 2.47 2.22 3.72 3.42 4.21v3.79H1.67a1 1 0 000 2h1.5V28h-1.5a1 1 0 000 2h1.5v9.08H1a1 1 0 00-1 1v4.42a1 1 0 001 1h34.17a1 1 0 001-1v-4.42a1 1 0 00-1-1h-2.34V30zM16 7.08c0-1.39 1.39-3.37 2.42-4.58 1 1.2 2.41 3.2 2.41 4.58s-1.74 2.21-2.41 2.45C17.74 9.29 16 8.52 16 7.08zm-3.93 10l.57.81-2.85 4.41-3.69-5.22zm3.47 0h4.94l.58.81-2.85 4.41-3.16-4.46zm8.42 0h6l-3.33 5.22-3.16-4.46zM5.17 19.23L9 24.66a1 1 0 00.81.42 1 1 0 00.82-.45l3.22-5 3.54 5a1 1 0 00.82.42 1 1 0 00.82-.45l3.21-5 3.55 5a1 1 0 00.82.42 1 1 0 00.82-.45l3.32-5.15V28H5.17zm29 24.27H2v-2.42h32.17zm-3.34-4.42H5.17V30h25.66z" fill="#74767b"/></g></g></svg>