<svg xmlns="http://www.w3.org/2000/svg" width="54.69" height="32.7"><g data-name="6"><g data-name="Layer 2"><path data-name="Path 13" d="M49.41 21.01a22.06 22.06 0 00-44.07 0H0V32.7h54.69V21.01zm3.28 4.85h-3.25v-2.85h3.25zm-37.88 2v2.84H7.72v-2.84zm-2.38-9.75L8 16.95a19.79 19.79 0 013.17-6.68l3.53 3a15.09 15.09 0 00-2.27 4.84zm14.7-9.55l-3.2 4.62-3.15-2.37-.87 3.27a19.62 19.62 0 00-.65 4.87 6.36 6.36 0 00.39 2H14A13.46 13.46 0 0127.13 8.56zm12.69 4.29l3.5-2.9a19.87 19.87 0 013.38 6.85l-4.42 1.15a15.66 15.66 0 00-2.46-5.1zm1 8.16h-5.9a7 7 0 00.39-2 20.51 20.51 0 00-.65-4.92l-.87-3.26-3.15 2.37-3.21-4.65a13.46 13.46 0 0113.36 12.46zm-10 4.85v-2.85h7.09v2.85zm-9.37 0v-2.85h7.37v2.85zm8.8-9.84l2.44-1.83.1.39a18 18 0 01.52 4.37 4.38 4.38 0 01-.45 1.84H21.7a4.37 4.37 0 01-.44-1.84 18.44 18.44 0 01.58-4.34l.11-.39 2.44 1.83 2.89-4.17zm-1.9-9.43V1.95a20.12 20.12 0 016.56 1.41l-2 4.17a15.28 15.28 0 00-4.63-.94zm-2 0a15.09 15.09 0 00-5 1.2l-1.98-4.15A20 20 0 0126.28 2zM19.45 23v2.85h-7.16v-2.84zm-2.57 4.85h7.37v2.84h-7.44zm9.37 0h7.09v2.84h-7.16zm9.09 0h7.6v2.84h-7.6zm4.57-2v-2.84h7.6v2.85zM42.86 21a8.22 8.22 0 00-.12-1.1l4.46-1.19a21.381 21.381 0 01.26 2.29zM42 8.38l-3.52 3a15.51 15.51 0 00-3.81-2.92l1.94-4.18A20.22 20.22 0 0142 8.38zM17.59 4.53l1.94 4.18a15.32 15.32 0 00-3.59 2.92l-3.52-2.95a20.4 20.4 0 015.17-4.15zm-10 14.35l4.47 1.2c0 .31-.08.62-.1.93h-4.6a21.34 21.34 0 01.23-2.13zm2.7 4.13v2.85H2v-2.85zM2 27.86h3.72v2.84H2zm42.87 2.84v-2.84h7.82v2.84z" fill="#74767b"/></g></g></svg>