<svg data-name="23" xmlns="http://www.w3.org/2000/svg" width="47.107" height="31.38"><g data-name="Layer 2" fill="#74767b"><path data-name="Path 69" d="M30.67 31H1a1 1 0 010-2h29.67a1 1 0 010 2z"/><path data-name="Path 70" d="M37.5 31.38a1 1 0 01-.6-.2l-6.56-4.89h-27a1 1 0 010-2h27.33a1 1 0 01.59.2l6.41 4.76 8.07-2.9a1 1 0 11.68 1.88l-8.58 3.09a1 1 0 01-.34.06z"/><path data-name="Path 71" d="M9.92 22.63A1.018 1.018 0 019 21.17l5-9.75a.982.982 0 011.4-.4l11.78 7.08a1 1 0 11-1 1.71l-10.86-6.53-4.51 8.8a1 1 0 01-.89.55z"/><path data-name="Path 72" d="M20.25 10.92a5.46 5.46 0 115.46-5.46 5.46 5.46 0 01-5.46 5.46zm0-8.92a3.46 3.46 0 103.46 3.46A3.46 3.46 0 0020.25 2z"/><path data-name="Path 73" d="M38.27 26.29a5.46 5.46 0 115.46-5.46 5.46 5.46 0 01-5.46 5.46zm0-8.91a3.46 3.46 0 103.46 3.45 3.46 3.46 0 00-3.46-3.45z"/></g></svg>