<svg xmlns="http://www.w3.org/2000/svg" width="58.283" height="30.63"><g data-name="22"><g data-name="Layer 2" fill="#74767b"><path data-name="Path 63" d="M52.284 28.63h-7.32a16.13 16.13 0 00-32.11 0h-7.32a1 1 0 000 2h46.75a1 1 0 000-2zm-23.38-12.57a14.17 14.17 0 0114.05 12.57h-28.09a14.16 14.16 0 0114.04-12.57z"/><path data-name="Path 64" d="M28.904 11.15a1 1 0 001-1V1a1 1 0 00-2 0v9.15a1 1 0 001 1z"/><path data-name="Path 65" d="M15.854 16a1 1 0 101.41-1.41l-6.47-6.47a1 1 0 10-1.41 1.42z"/><path data-name="Path 66" d="M10.024 25.2a1.003 1.003 0 00.16-2l-9-1.52a1.014 1.014 0 00-.34 2l9 1.52z"/><path data-name="Path 67" d="M41.734 16.3a1 1 0 00.71-.3l6.46-6.46a1 1 0 00-1.41-1.42l-6.47 6.47a1 1 0 00.71 1.71z"/><path data-name="Path 68" d="M57.104 21.7l-9 1.52a1.003 1.003 0 10.16 2h.17l9-1.52a1.014 1.014 0 00-.33-2z"/></g></g></svg>