<svg xmlns="http://www.w3.org/2000/svg" width="46.2" height="46.576"><g data-name="Group 1"><g data-name="15"><g data-name="Layer 2"><path data-name="Path 44" d="M10.25 13.253a6.083 6.083 0 106.083 6.074 6.083 6.083 0 00-6.083-6.074z" fill="none" stroke="#74767b" stroke-width="2"/><path data-name="Path 45" d="M45.27 39.576c-6.23-.14-10.73-3.65-12-9.37-1.55-7.43-5.83-11.4-12.73-11.83v-8.35a1.36 1.36 0 00-.06-.29v-.07a1.06 1.06 0 00-.21-.31L11 .286a1 1 0 00-1.4 0L.3 9.356a1.06 1.06 0 00-.21.31v.07a1.36 1.36 0 00-.09.26v35.19a1 1 0 001 1h3.6a1 1 0 001-1v-.5h9.3v.5a1 1 0 001 1h3.6a1 1 0 001-1v-15.9c3.78.78 5.71 2.33 6.21 7.39.43 4.65 9.41 9.46 18.49 9.9a.989.989 0 001-1v-5a1 1 0 00-.93-1zm-30.37-4.39H5.6v-1.94h9.3zm-9.3 2h9.3v1.56H5.6zm9.3-5.94H5.6v-1.67h9.3zm-10.3-3.67H2v-16.5h16.5v16.5zm5.65-25.18l6.8 6.67H3.45zM3.6 44.186H2v-14.61h1.6zm2-1.5v-1.94h9.3v1.94zm12.9 1.5h-1.6v-14.61h1.6zm25.75.32c-8.15-.7-15.26-4.86-15.55-8-.62-6.35-3.59-8.35-8.2-9.24v-6.89c5.89.41 9.42 3.77 10.78 10.26 1.43 6.28 6.36 10.39 13 10.89z" fill="#74767b"/></g></g></g></svg>