<svg xmlns="http://www.w3.org/2000/svg" width="45.116" height="42.705"><g data-name="21"><g data-name="Layer 2" fill="#74767b"><path data-name="Path 55" d="M44.17 29.985h-7.63a.64.64 0 01-.42-.15c-.41-.38-.79-.79-1.19-1.17-.14-.13-.16-.23 0-.35a2.38 2.38 0 00.61-2.2c-.29-1.3-.65-2.59-1-3.88-.31-1.07-.7-2.13-1-3.2a3.6 3.6 0 00-3.26-2.56H23.4a2.89 2.89 0 00-2.74 1.76 37.142 37.142 0 00-1.25 3.59c-.36 1.14-.69 2.3-1 3.44a3.07 3.07 0 00-.05 2.25c.1.24.25.47.39.75a2.59 2.59 0 00-1.24 1.39.46.46 0 01-.52.34h-7a5.09 5.09 0 00-.78 0 .76.76 0 00-.56 1.08.85.85 0 00.87.48h7.49c.31 0 .43.09.47.41.09.77.23 1.54.35 2.31.25 1.53.5 3.07.76 4.6a17.3 17.3 0 00.42 2.2 2.3 2.3 0 002.8 1.55 2.37 2.37 0 001.78-2.38c-.07-1.12-.2-2.24-.29-3.36l-.41-4.46c0-.24.05-.36.31-.43.89-.27 1.78-.59 2.68-.86a2.1 2.1 0 011.38-.18c1 .37 2.08.71 3.13 1 .24.07.31.18.29.41-.07.79-.13 1.57-.2 2.36-.17 1.8-.35 3.6-.49 5.4a2.36 2.36 0 002.41 2.52 2.43 2.43 0 002.32-2.17c.1-.73.23-1.45.36-2.18.18-1.06.37-2.13.55-3.19s.36-2.13.53-3.2c0-.29.16-.41.48-.41h7.67a.78.78 0 00.7-1.16.83.83 0 00-.84-.35zm-20.26.13l-2 .67a.82.82 0 00-.65.92c.12 1.35.25 2.69.38 4 .07.75.14 1.5.2 2.26s.14 1.48.19 2.23a.78.78 0 11-1.55.15c-.28-1.7-.54-3.41-.82-5.12-.23-1.41-.47-2.83-.71-4.25-.14-.79 0-1 .64-1.44a1.9 1.9 0 011.73-.23c.76.24 1.55.36 2.33.54a2.44 2.44 0 01.34.14zm5.64-2.81c-.11-.24 0-.32.19-.37l1.27-.35a.89.89 0 00.7-1.25c-.25-.84-.51-1.69-.75-2.54-.19-.64-.6-.91-1.11-.73a.76.76 0 00-.5.94c.18.64.36 1.29.56 1.92.07.22 0 .32-.19.37a17.16 17.16 0 01-2.19.56 3.56 3.56 0 01-1.29-.25c-.68-.17-1.35-.38-2-.55-.25-.06-.36-.13-.28-.41.16-.54.29-1.09.43-1.63a.78.78 0 00-.54-1 .74.74 0 00-.95.5c-.27.91-.53 1.83-.75 2.75a.735.735 0 00.66 1l5 1.35a.73.73 0 01.56.94.71.71 0 01-.91.52c-1.11-.24-2.21-.5-3.32-.75l-3-.68a6.12 6.12 0 01-.93-.26.93.93 0 01-.53-1.18c.38-1.26.77-2.5 1.15-3.75.29-.93.56-1.86.85-2.78a2.06 2.06 0 011.29-1.59 2.29 2.29 0 01.64-.08h6.36a1.89 1.89 0 012 1.45q.75 2.385 1.5 4.75c.19.6.35 1.21.49 1.82a1.2 1.2 0 01-1 1.61c-.89.23-1.78.42-2.68.62-.46.09-.45.07-.53-.38a2.15 2.15 0 00-.2-.57zm5.16 3.83c-.13.71-.25 1.42-.37 2.14-.19 1.1-.37 2.21-.56 3.32s-.38 2.15-.56 3.22a5.42 5.42 0 01-.17.82c-.14.42-.43.54-.91.44a.65.65 0 01-.56-.75c.07-1 .16-1.92.24-2.87.14-1.55.28-3.1.43-4.65 0-.36.08-.71.1-1.07a.84.84 0 00-.64-.95l-1.93-.64v-.1c.41-.1.83-.21 1.25-.3q.9-.21 1.8-.39a.58.58 0 01.39.06c.39.26.76.54 1.13.81a.84.84 0 01.36.91z"/><path data-name="Path 56" d="M26.79 15.655a4 4 0 10-4-4 4 4 0 004 4zm0-6.35a2.37 2.37 0 11-2.36 2.35 2.32 2.32 0 012.34-2.35z"/><path data-name="Path 57" d="M39.13 25.065a.71.71 0 001-.07.8.8 0 00.11-1c-.12-.19-.28-.36-.42-.54a3.47 3.47 0 01-1-2.83 9.75 9.75 0 01.69-1.94 8.51 8.51 0 00.8-3.27 6.44 6.44 0 00-.56-2.46.79.79 0 10-1.46.58 4.58 4.58 0 01.31 2.89c-.15.5-.36 1-.54 1.48a16.8 16.8 0 00-.83 2.31 4.34 4.34 0 00.84 3.55 9.82 9.82 0 001.06 1.3z"/><path data-name="Path 58" d="M43.68 24.885a.76.76 0 001.14.14.79.79 0 00.06-1.18 10.859 10.859 0 01-.75-1 2.83 2.83 0 01-.56-2.26 8.82 8.82 0 01.56-1.64 8.53 8.53 0 00.88-3.4 8.47 8.47 0 00-.1-1.13 11.211 11.211 0 00-.42-1.36.81.81 0 00-1-.55.82.82 0 00-.48 1.16 4.34 4.34 0 01.08 3.58c-.29.68-.61 1.36-.87 2.05a4.48 4.48 0 00-.3 2.35 6.55 6.55 0 001.76 3.24z"/><path data-name="Path 59" d="M6.37 11.165v.8h10.64v-.8a5.3 5.3 0 00-4.4-5.21 6.31 6.31 0 10-12.6.71v19.76h1.91V6.665a4.39 4.39 0 018.71-.68 5.29 5.29 0 00-4.26 5.18zm5.3-3.74a3.71 3.71 0 013.61 2.9H8.06a3.7 3.7 0 013.61-2.9z"/><path data-name="Path 60" d="M9.79 17.425v-3.38a.8.8 0 10-1.6 0v3.38a.8.8 0 001.6 0z"/><path data-name="Path 61" d="M10.65 14.045v3.38a.8.8 0 001.6 0v-3.38a.8.8 0 10-1.6 0z"/><path data-name="Path 62" d="M13.11 14.045v3.38a.8.8 0 001.6 0v-3.38a.8.8 0 10-1.6 0z"/></g></g></svg>