<svg xmlns="http://www.w3.org/2000/svg" width="41.054" height="42.415"><g data-name="7"><g data-name="Layer 2" fill="#74767b"><path data-name="Path 14" d="M34.862 8.365a1 1 0 00-.82-1.81c-5.59 1.85-10.26 6.12-13.94 12.72-3.14-9.83-8.37-16.27-15.62-19.2a1 1 0 00-1.09 1.63c6.91 7.05 10.84 16.42 11.89 28.47a23.868 23.868 0 00-13.8-14.84 1 1 0 00-1.09 1.67c7 7.05 10.05 15.22 9 24.3a1 1 0 00.87 1.11h.12a1 1 0 001-.89 29.37 29.37 0 00-5.86-21.69c6 4.33 9.24 11.45 10 21.62a1 1 0 001 .93 1 1 0 001-1c.7-15.52-2.23-27.6-8.91-36.72 7.89 6.09 12.27 18.4 13 36.72a1 1 0 001 1 1 1 0 001-1c.22-17.63 4.01-28.74 11.25-33.02zm-12.43 20.82a72.013 72.013 0 00-1.5-7.15 31.28 31.28 0 017-9.58c-2.72 4.05-4.53 9.61-5.5 16.73z"/><path data-name="Path 15" d="M40.872 15.115a1 1 0 00-1.21-.26c-9.34 4.62-14.32 13.53-14.81 26.49a1 1 0 001 1 1 1 0 001-1c.38-10.22 3.7-17.74 9.87-22.41-3.83 6.46-5.75 13.82-5.87 22.36a1 1 0 001 1 1 1 0 001-1c.13-9.85 2.76-18 8-25a1 1 0 00.02-1.18z"/></g></g></svg>