<svg xmlns="http://www.w3.org/2000/svg" width="44.073" height="40.14"><g data-name="13"><g data-name="Layer 2" fill="#74767b"><path data-name="Path 35" d="M15.31 16.017c-3 0-5.87-2.9-6.61-6.9-.81-4.35 1.21-8.4 4.51-9.02a5.44 5.44 0 014.78 1.64 9.7 9.7 0 012.68 5.18 9.61 9.61 0 01-.63 5.79 5.46 5.46 0 01-3.88 3.25 5 5 0 01-.85.06zm-1.24-14a2.83 2.83 0 00-.5 0c-2.17.4-3.51 3.48-2.91 6.71s3 5.61 5.13 5.21a3.54 3.54 0 002.44-2.13 7.6 7.6 0 00.47-4.58 7.63 7.63 0 00-2.09-4.1 3.73 3.73 0 00-2.54-1.11z"/><path data-name="Path 36" d="M6.73 26.257a5.26 5.26 0 01-2.42-.63 8.16 8.16 0 01-3.32-3.53c-1.76-3.39-1.11-7.08 1.44-8.36a4.57 4.57 0 014.28.19 8 8 0 013.36 3.53 8.1 8.1 0 01.92 4.79 4.61 4.61 0 01-2.4 3.57 4.14 4.14 0 01-1.86.44zm-2.43-11a2.05 2.05 0 00-1 .22c-1.5.77-1.78 3.36-.6 5.67a6 6 0 002.5 2.66 2.63 2.63 0 002.48.21 2.67 2.67 0 001.31-2.07 6.13 6.13 0 00-.68-3.59 6.16 6.16 0 00-2.5-2.66 3.24 3.24 0 00-1.51-.4z"/><path data-name="Path 37" d="M28.8 16.017a5.33 5.33 0 01-.88-.08 5.48 5.48 0 01-3.88-3.25 9.61 9.61 0 01-.62-5.79c.81-4.37 4.16-7.43 7.45-6.82s5.33 4.67 4.51 9a9.57 9.57 0 01-2.67 5.18 5.65 5.65 0 01-3.91 1.76zm1.19-14c-2 0-4 2.27-4.61 5.26a7.6 7.6 0 00.47 4.58 3.54 3.54 0 002.44 2.16 3.5 3.5 0 003-1.12 7.57 7.57 0 002.09-4.09c.6-3.23-.73-6.31-2.91-6.71a2.72 2.72 0 00-.48-.08z"/><path data-name="Path 38" d="M37.36 26.257a4.15 4.15 0 01-1.87-.44 4.61 4.61 0 01-2.36-3.57 8.1 8.1 0 01.86-4.79c1.73-3.39 5.08-5 7.64-3.72s3.2 5 1.48 8.36a8.16 8.16 0 01-3.36 3.53 5.25 5.25 0 01-2.39.63zm2.43-11c-1.4 0-3 1.21-4 3.06a6.13 6.13 0 00-.68 3.59 2.36 2.36 0 003.74 1.9 6.11 6.11 0 002.5-2.66c1.17-2.31.89-4.9-.61-5.67a2.07 2.07 0 00-.95-.18z"/><path data-name="Path 39" d="M11.9 40.117a4.66 4.66 0 01-4.25-2.66c-1.19-2.25-1-5.24.42-6.67l11.25-11.24a4 4 0 015.58 0l11.25 11.24c1.42 1.43 1.61 4.42.42 6.67a4.73 4.73 0 01-5.33 2.56 2.4 2.4 0 00-.25 0 3.16 3.16 0 01-.79-.13l-1-.31a19.3 19.3 0 00-14.08 0l-1 .31a3.16 3.16 0 01-.8.13 2.479 2.479 0 00-.33 0 5.79 5.79 0 01-1.09.1zm10.21-19.59a1.81 1.81 0 00-1.28.53L9.58 32.307c-.68.67-.85 2.64-.05 4.15a2.61 2.61 0 003.05 1.46 4.6 4.6 0 01.52-.06 2 2 0 00.32 0l1-.31a21.42 21.42 0 0115.34 0l1 .31a2 2 0 00.32 0 4.6 4.6 0 01.52.06 2.61 2.61 0 003.05-1.46c.79-1.51.63-3.48-.05-4.15l-11.21-11.29a1.81 1.81 0 00-1.28-.49z"/></g></g></svg>