<svg xmlns="http://www.w3.org/2000/svg" width="49.15" height="31.767"><g data-name="1"><g data-name="Layer 2"><path data-name="Path 1" d="M38.875 11.1a10.42 10.42 0 00-3.37.58L32.145 4h4.74a1.19 1.19 0 010 2.38h-2v1.55h2a2.78 2.78 0 100-5.55h-5.89a.79.79 0 00-.8.79.71.71 0 00.07.32l1.53 3.65h-13.28l-.93-2.91 2.66-.89a1.71 1.71 0 00-.54-3.34h-5.89a1.92 1.92 0 00-1.35 3.27l.45.45a3.5 3.5 0 003.15 1l.85 2.66a.78.78 0 00-.16.2L14.425 12a10.31 10.31 0 105.34 13.57l.27-.68a3.15 3.15 0 002.81 2.11l.6 1.79a.79.79 0 00.73.54l2.78.07v-1.59l-2.22-.05-.37-1.09a3.13 3.13 0 001.46-4.18 3.44 3.44 0 00-.42-.65l7.94-11 .66 1.52a10.3 10.3 0 104.83-1.21zm-22.83-8a2 2 0 01-2-.47l-.45-.46a.32.32 0 010-.46.31.31 0 01.22-.09h5.89a.12.12 0 01.13.12.13.13 0 01-.09.13zm-5.73 27.04a8.73 8.73 0 113.37-16.77L9.615 21a.81.81 0 00.38 1.12.88.88 0 00.23.07l8.53 1.6a8.75 8.75 0 01-8.44 6.35zm8.68-7.9l-7.48-1.41 3.56-6.71a8.76 8.76 0 014 7.3v.82zm1.61-.5v-.32a10.29 10.29 0 00-4.8-8.71l1.75-3.3 3.75 11.71a3 3 0 00-.71.62zm3.29 3.36l-.54-1.62-1.51.5.4 1.2a1.58 1.58 0 112.15-.63 1.65 1.65 0 01-.5.55zm.26-4.25a3.08 3.08 0 00-1.16-.23h-.17l-3.83-11.9h13.49l.16.37zm14.71 9.29a8.72 8.72 0 01-4.19-16.37l3.46 8 1.45-.63-3.46-8a8.73 8.73 0 115.5 16.57 8.9 8.9 0 01-2.75.43z" fill="#74767b"/></g></g></svg>