<svg xmlns="http://www.w3.org/2000/svg" width="33.637" height="35.914"><g data-name="17"><g data-name="Layer 2" fill="#74767b"><path data-name="Path 47" d="M31.347 15.724h-4.65v-3.21a6 6 0 00-3.53-10.75 5.85 5.85 0 00-2.94.8 7.73 7.73 0 00-11.5 0 5.83 5.83 0 00-2.81-.8 6 6 0 00-3.78 10.59v20.28a3.28 3.28 0 003.28 3.28h18a3.28 3.28 0 003.28-3.28v-3.16h4.65a2.3 2.3 0 002.29-2.29v-9.21a2.3 2.3 0 00-2.29-2.25zM5.917 3.764a3.87 3.87 0 012.43.87l.83.65.61-.86a5.74 5.74 0 019.45.06l.62.91.85-.7a3.86 3.86 0 012.5-.93 4 4 0 110 7.92 3.86 3.86 0 01-2.5-.93l-.85-.7-.62.91a5.74 5.74 0 01-9.45.06l-.61-.86-.83.65a3.87 3.87 0 01-2.43.87 4 4 0 010-7.92zm17.5 30.15h-18a1.29 1.29 0 01-1.28-1.28v-19.21a5.85 5.85 0 004.59-.45 7.73 7.73 0 0011.5-.05 5.85 5.85 0 002.94.8 6 6 0 001.53-.21v19.12a1.28 1.28 0 01-1.28 1.28zm8.22-6.73a.29.29 0 01-.29.29h-4.65v-9.75h4.65a.29.29 0 01.29.29z"/><path data-name="Path 48" d="M8.577 17.164a1 1 0 00-1 1v10.94a1 1 0 002 0v-10.94a1 1 0 00-1-1z"/><path data-name="Path 49" d="M14.517 17.164a1 1 0 00-1 1v10.94a1 1 0 002 0v-10.94a1 1 0 00-1-1z"/><path data-name="Path 50" d="M19.837 17.164a1 1 0 00-1 1v10.94a1 1 0 002 0v-10.94a1 1 0 00-1-1z"/></g></g></svg>