<svg data-name="5" xmlns="http://www.w3.org/2000/svg" width="50.46" height="23.08"><g data-name="Layer 2"><path data-name="Path 12" d="M48.84 7.67h-2.92V5a2.08 2.08 0 00-2.08-2.07h-2.51v-.39A2.54 2.54 0 0038.79 0H35a2.54 2.54 0 00-2.5 2.54v5.13H18V2.54A2.54 2.54 0 0015.46 0h-3.75a2.54 2.54 0 00-2.54 2.54v.38H6.66A2.08 2.08 0 004.58 5v2.67H1.66A1.66 1.66 0 000 9.33v4.43a1.66 1.66 0 001.66 1.66h2.92v2.68a2.08 2.08 0 002.08 2.07h2.51v.37a2.54 2.54 0 002.54 2.54h3.75A2.54 2.54 0 0018 20.54v-5.12h14.5v5.12a2.54 2.54 0 002.5 2.54h3.75a2.54 2.54 0 002.54-2.54v-.37h2.51a2.08 2.08 0 002.08-2.07v-2.68h2.92a1.67 1.67 0 001.66-1.66V9.33a1.66 1.66 0 00-1.62-1.66zM2 13.42V9.67h2.58v3.75zm7.09 4.75H6.66a.08.08 0 01-.08-.07V5a.09.09 0 01.08-.07h2.43a.09.09 0 01.08.07v13.1a.08.08 0 01-.08.07zM16 20.54a.54.54 0 01-.54.54h-3.75a.54.54 0 01-.54-.54v-18a.54.54 0 01.54-.54h3.75a.55.55 0 01.54.54zm2-7.12V9.67h14.5v3.75zm21.33 7.12a.54.54 0 01-.54.54H35a.54.54 0 01-.54-.54v-18A.55.55 0 0135 2h3.75a.55.55 0 01.54.54v18zm4.59-2.44a.08.08 0 01-.08.07h-2.43a.08.08 0 01-.08-.07V5a.09.09 0 01.08-.07h2.43a.09.09 0 01.08.07zm4.58-4.68h-2.58V9.67h2.58z" fill="#74767b"/></g></svg>