<svg xmlns="http://www.w3.org/2000/svg" width="52.82" height="32.796"><g data-name="11"><g data-name="Layer 2"><path data-name="Path 28" d="M49.08 17.626a4.72 4.72 0 10-6.49 0 4.92 4.92 0 00-2.17 1.22l-1.93-3.33a1 1 0 00-.87-.5h-4.5v-2.06a5 5 0 00-3.72-4.78 4.73 4.73 0 10-6.48 0 5 5 0 00-3.73 4.78v2.08h-3.88a1 1 0 00-.83.45l-2.19 3.25a5 5 0 00-2.07-1.12 4.73 4.73 0 10-6.49 0A5 5 0 000 22.406v2.55h2v-2.55a3 3 0 013-2.95h4a2.91 2.91 0 012.17 1l-7.25 10.81a1.03 1.03 0 00.88 1.53h42.01a1 1 0 00.87-1.51l-6.2-10.67a2.9 2.9 0 012.34-1.19h4a3 3 0 013 2.95v2.55h2v-2.52a5 5 0 00-3.74-4.78zM7 11.486a2.72 2.72 0 11-1.93.793A2.73 2.73 0 017 11.486zm19.16-9.45a2.72 2.72 0 11-1.93.793 2.73 2.73 0 011.93-.793zm-5 10.92a3 3 0 012.98-2.92h4a3 3 0 012.94 2.95v2.05h-9.89zM6.62 30.826l9.23-13.79h21.2l8 13.82zm39.22-19.34a2.73 2.73 0 11-2.72 2.72 2.73 2.73 0 012.72-2.72z" fill="#74767b"/></g></g></svg>