<svg xmlns="http://www.w3.org/2000/svg" width="31.776" height="40.445"><g data-name="16"><g data-name="Layer 2"><path data-name="Path 46" d="M27.939 6.075a9.53 9.53 0 00-18.41 3.29 9.15 9.15 0 103.3 17.52 9.41 9.41 0 004.33 2.56v10a1 1 0 002 0v-9.71h.53a9.55 9.55 0 009.53-9.54 9.51 9.51 0 00-1.28-14.12zm-.47 13l-.33.32v.79a7.54 7.54 0 01-7.53 7.54h-.53v-10.49l4.6-3.49a1 1 0 10-1.21-1.59l-3.39 2.57v-9.19a1 1 0 00-2 0v16.23c-9.34-5.63-9.38-5.6-10-5.05a1 1 0 00.35 1.68c.76.39 6.05 3.56 9.62 5.7v3.23a7.51 7.51 0 01-3.31-2.35l-.53-.65-.74.41a7.15 7.15 0 11-3.38-13.38 6.81 6.81 0 011.33.13l1.35.25-.17-1.36a7 7 0 01-.07-1 7.53 7.53 0 0114.67-2.4l.1.32.27.19a7.51 7.51 0 01.94 11.59z" fill="#74767b"/></g></g></svg>