<svg xmlns="http://www.w3.org/2000/svg" width="49.835" height="44.552"><g data-name="8"><g data-name="Layer 2" fill="#74767b"><path data-name="Path 16" d="M41.966 26.1a4.86 4.86 0 00-3.93-4.76c-.5-4.86-4.82-7.72-5-7.85a1 1 0 00-.55-.16h-23a1 1 0 00-.54.16c-.19.13-4.52 3-5 7.85a4.85 4.85 0 000 9.53l.84 7.2a1 1 0 001 .89h1.32l-1.31 4.24a1.001 1.001 0 001.91.6l1.5-4.8h23.59l1.5 4.84a1.02 1.02 0 101.96-.56L34.896 39h1.27a1 1 0 001-.89l.85-7.2a4.87 4.87 0 003.95-4.81zm-2 0a2.86 2.86 0 11-2.86-2.86 2.86 2.86 0 012.86 2.86zM9.816 15.33h22.37c.79.6 3.43 2.8 3.85 6a4.88 4.88 0 00-3.79 4.74 4.82 4.82 0 00.27 1.53 7.82 7.82 0 00-5.76-2.53h-11.51a7.8 7.8 0 00-5.76 2.53 4.82 4.82 0 00.27-1.53 4.88 4.88 0 00-3.8-4.74c.43-3.2 3.08-5.4 3.86-6zm22.49 15.82H9.696a5.81 5.81 0 015.55-4h11.51a5.84 5.84 0 015.55 4zM2.036 26.1a2.86 2.86 0 11.823 2.048 2.86 2.86 0 01-.823-2.048zm19 10.9H6.726l-.69-6.18a4.83 4.83 0 002.11-1.11 7.82 7.82 0 00-.67 2.29 1 1 0 00.99 1.12h25.07a1 1 0 00.99-1.12 7.82 7.82 0 00-.64-2.32 4.83 4.83 0 002.15 1.14l-.76 6.18z"/><path data-name="Path 17" d="M47.646.8a1 1 0 00-1-.8h-4.9a1 1 0 00-1 .77l-2.5 10.75a1 1 0 001 1.23h3.79V42.5h-2.7a1 1 0 000 2h7.41a1 1 0 000-2h-2.71V12.75h3.8a1.009 1.009 0 00.98-1.2zm-7.14 10l2-8.75h3.3l1.77 8.75z"/></g></g></svg>