<svg xmlns="http://www.w3.org/2000/svg" width="47.055" height="35.477"><g data-name="14"><g data-name="Layer 2" fill="#74767b"><path data-name="Path 40" d="M27.297 10.496v-3.86c.06-2.63 1.43-4.56 4.14-5.83a9.49 9.49 0 013.9-.8 1.1 1.1 0 011.08.6.84.84 0 01-.52 1.07 1.34 1.34 0 01-.45.09 7.74 7.74 0 00-2.67.48 5 5 0 00-2.71 2.11 11.89 11.89 0 00-.53 1.28c-.11.26.08.3.32.3h7.69c.45 0 .42 0 .49-.38a6.06 6.06 0 012.42-3.79 9.18 9.18 0 015.46-1.76 1.09 1.09 0 011.1.62.8.8 0 01-.5 1 1.24 1.24 0 01-.47.1 7.83 7.83 0 00-2.74.5 5.13 5.13 0 00-2.73 2.25 4.43 4.43 0 00-.53 2.21v7.92a.92.92 0 01-.62 1c-.6.24-1.37-.06-1.44-.62a11.011 11.011 0 010-1.52c0-.52 0-.43-.5-.43h-7.57c-.46 0-.46 0-.46.39v1.3a1.055 1.055 0 01-2.11 0v-4.23zm6.39-2.76h-3.86c-.29 0-.39.08-.38.32v2.89c0 .24.08.33.37.33h7.73c.3 0 .43-.08.43-.35v-2.81c0-.35 0-.37-.46-.37z"/><path data-name="Path 41" d="M37.337 20.396a4.66 4.66 0 01-3-1.42c-.25-.23-.5-.46-.76-.68a2.12 2.12 0 00-2.62-.11c-.84.5-1.66 1.05-2.5 1.54a4.73 4.73 0 01-1.89.65 4.31 4.31 0 01-3.32-1.24c-.26-.22-.5-.46-.76-.69a2.15 2.15 0 00-2.81-.25c-.83.5-1.64 1-2.48 1.52a4.51 4.51 0 01-2.2.68 4.42 4.42 0 01-3-1.25c-.45-.38-.89-.77-1.37-1.1a1.71 1.71 0 00-1.83 0c-.86.47-1.68 1-2.52 1.51a5.19 5.19 0 01-2.41.86 4.48 4.48 0 01-3.67-1.76 1.08 1.08 0 01-.18-.81 1 1 0 011.68-.52c.24.2.48.42.74.6a2 2 0 002.31.08c.85-.48 1.66-1 2.5-1.53a4.66 4.66 0 012.68-.72 4.62 4.62 0 012.8 1.34l.79.7a2 2 0 002.5.21c.85-.49 1.67-1 2.51-1.53a4.42 4.42 0 013.18-.67 5 5 0 012.43 1.4 7.08 7.08 0 001.1.88 2 2 0 002.06-.08c.83-.48 1.63-1 2.45-1.5a4.5 4.5 0 013.15-.7 4.71 4.71 0 012.33 1.2c.35.3.68.62 1 .89a2 2 0 002.29.07c.84-.48 1.64-1 2.47-1.53a4.46 4.46 0 013.16-.67 4.72 4.72 0 012.72 1.68 1 1 0 01-1.38 1.41c-.39-.26-.74-.58-1.13-.83a1.71 1.71 0 00-1.79-.02c-.86.48-1.69 1-2.54 1.53a5.42 5.42 0 01-2.69.86z"/><path data-name="Path 42" d="M37.337 28.086a4.71 4.71 0 01-3-1.42c-.25-.24-.5-.46-.76-.68a2.11 2.11 0 00-2.62-.11c-.84.5-1.66 1-2.5 1.54a4.73 4.73 0 01-1.89.65 4.35 4.35 0 01-3.32-1.24c-.26-.22-.5-.46-.76-.69a2.14 2.14 0 00-2.81-.25c-.83.5-1.64 1-2.48 1.52a4.4 4.4 0 01-2.2.67 4.37 4.37 0 01-3-1.24 15.7 15.7 0 00-1.37-1.1 1.69 1.69 0 00-1.83 0c-.86.47-1.68 1-2.52 1.51a5.3 5.3 0 01-2.41.86 4.49 4.49 0 01-3.67-1.77 1.014 1.014 0 011.52-1.33c.24.2.48.41.74.6a2 2 0 002.29.06c.85-.48 1.66-1 2.5-1.53a4.66 4.66 0 012.68-.72 4.61 4.61 0 012.8 1.33c.26.24.52.48.79.71a2 2 0 002.49.22c.85-.49 1.67-1 2.51-1.54a4.46 4.46 0 013.18-.66 5 5 0 012.43 1.4 7 7 0 001.1.87 2 2 0 002.07-.08c.83-.48 1.63-1 2.45-1.51a4.49 4.49 0 013.15-.69 4.63 4.63 0 012.33 1.25c.35.3.68.62 1 .89a2 2 0 002.29.06c.84-.48 1.64-1 2.47-1.52a4.46 4.46 0 013.16-.68 4.82 4.82 0 012.72 1.68 1.009 1.009 0 01-1.38 1.42c-.39-.26-.74-.58-1.13-.84a1.73 1.73 0 00-1.83 0c-.86.47-1.69 1-2.54 1.52a5.33 5.33 0 01-2.65.84z"/><path data-name="Path 43" d="M37.337 35.456a4.66 4.66 0 01-3-1.42c-.25-.23-.5-.46-.76-.68a2.12 2.12 0 00-2.62-.11c-.84.5-1.66 1-2.5 1.54a4.73 4.73 0 01-1.89.65 4.28 4.28 0 01-3.32-1.24c-.26-.22-.5-.46-.76-.68a2.14 2.14 0 00-2.81-.26c-.83.51-1.64 1-2.48 1.52a4.51 4.51 0 01-2.2.68 4.46 4.46 0 01-3-1.24 15.83 15.83 0 00-1.37-1.11 1.73 1.73 0 00-1.83 0c-.86.47-1.68 1-2.52 1.51a5.08 5.08 0 01-2.41.86 4.48 4.48 0 01-3.67-1.76 1.05 1.05 0 01-.16-.8 1 1 0 011.68-.53c.24.21.48.42.74.61a2 2 0 002.29.06c.85-.49 1.66-1 2.5-1.54a4.58 4.58 0 012.68-.71 4.56 4.56 0 012.8 1.33c.26.23.52.48.79.7a2 2 0 002.49.23c.85-.5 1.67-1 2.51-1.54a4.37 4.37 0 013.18-.66 4.89 4.89 0 012.43 1.39 7.08 7.08 0 001.1.88 1.94 1.94 0 002.07-.13c.83-.48 1.63-1 2.45-1.5a4.5 4.5 0 013.15-.7 4.79 4.79 0 012.33 1.25c.35.3.68.62 1 .9a2 2 0 002.29.06c.84-.48 1.64-1 2.47-1.52a4.46 4.46 0 013.16-.68 4.72 4.72 0 012.72 1.68 1 1 0 01-1.38 1.41c-.39-.26-.74-.58-1.13-.83a1.71 1.71 0 00-1.83 0c-.86.47-1.69 1-2.54 1.52a5.32 5.32 0 01-2.65.86z"/></g></g></svg>