<svg xmlns="http://www.w3.org/2000/svg" width="27.54" height="39.13"><g data-name="Group 2"><g data-name="Layer 2"><path data-name="Path 18" d="M13.67 15.88a9.58 9.58 0 109.58 9.58 9.58 9.58 0 00-9.58-9.58z" fill="none" stroke="#707070" stroke-width="2"/><path data-name="Path 19" d="M13.67 18.46v2a5 5 0 015 5h2a7 7 0 00-7-7z" fill="#74767b"/><path data-name="Path 20" d="M8.67 25.46h-2a7 7 0 007 7v-2a5 5 0 01-5-5z" fill="#74767b"/><path data-name="Path 21" d="M5.08 12.21h4.5a1 1 0 100-2h-4.5a1 1 0 000 2z" fill="#74767b"/><path data-name="Path 22" d="M13.67 12.21h.71a1 1 0 000-2h-.71a1 1 0 000 2z" fill="#74767b"/><path data-name="Path 23" d="M18 12.21h.71a1 1 0 000-2H18a1 1 0 000 2z" fill="#74767b"/><path data-name="Path 24" d="M21.35 12.21h.71a1 1 0 000-2h-.71a1 1 0 000 2z" fill="#74767b"/><path data-name="Path 25" d="M25 5.54h-8.42V3.77a1 1 0 00-1-1h-3.93V1a1 1 0 00-1-1H2.71a1 1 0 00-1 1v4.69A2.54 2.54 0 000 8.08v28.5a2.55 2.55 0 002.54 2.55H25a2.55 2.55 0 002.54-2.55V8.08A2.54 2.54 0 0025 5.54zm-10.38 0H3.71v-.77h10.87zM3.71 2h5.94v.77H3.71zM25.5 36.58a.55.55 0 01-.54.55H2.54a.55.55 0 01-.54-.55V8.08a.55.55 0 01.54-.54H25a.55.55 0 01.54.54z" fill="#74767b"/></g></g></svg>