<svg xmlns="http://www.w3.org/2000/svg" width="34.25" height="44.491"><g data-name="3"><g data-name="Layer 2" fill="#74767b"><path data-name="Path 3" d="M9.09 7.32a.49.49 0 000 .12v.3a.36.36 0 000 .11.42.42 0 000 .1V8a.47.47 0 00.06.09.24.24 0 00.06.11l.07.09.07.11.07.08a.63.63 0 00.1.12l.36.42.13.12.09.06a.47.47 0 00.15.13l.08.06a1.31 1.31 0 00.27.19 1.08 1.08 0 00.29.18 1.06 1.06 0 001.33-1.64.94.94 0 00-.35-.2l-.18-.12a.91.91 0 00-.16-.11l-.12-.11-.09-.09a.27.27 0 01-.07-.08v-.16a.13.13 0 010-.06v-.26a.67.67 0 00.06-.12.83.83 0 00.08-.12l.09-.13.1-.14a.91.91 0 00.11-.16 1 1 0 00.13-.16.53.53 0 00.18-.3 1.49 1.49 0 00.12-.14 1 1 0 00.13-.16.88.88 0 00.12-.15 1.92 1.92 0 00.13-.17 1 1 0 00.09-.16l.11-.15a1.1 1.1 0 00.09-.14 1.48 1.48 0 00.21-.25c0-.05.06-.09.07-.13v-.07l.07-.12a.36.36 0 000-.07v-.13a.64.64 0 000-.07v-.54a.15.15 0 000-.07.5.5 0 000-.12v-.14a.48.48 0 000-.12v-.13a.49.49 0 000-.12V2.3a.42.42 0 010-.1V2l-.06-.1-.06-.09-.02-.35a.5.5 0 00-.07-.08.52.52 0 00-.1-.11.6.6 0 00-.08-.08l-.19-.17a.71.71 0 00-.09-.07l-.16-.16-.1-.07a1 1 0 00-.27-.18 1.17 1.17 0 00-.28-.17 1.07 1.07 0 00-.32-.16 1 1 0 00-1.43.22 1.06 1.06 0 00.19 1.49 1.23 1.23 0 00.38.19l.22.12a1.18 1.18 0 00.19.11l.15.11.12.09.09.09.06.07v.2a.14.14 0 010 .07v.09a.31.31 0 00-.05.1.39.39 0 00-.06.11.83.83 0 00-.08.12 1 1 0 00-.09.13.65.65 0 00-.1.15 1.58 1.58 0 00-.12.15 1.83 1.83 0 00-.13.16.951.951 0 00-.11.15 1.49 1.49 0 00-.12.14 1.83 1.83 0 00-.13.16 1 1 0 00-.12.16 1 1 0 00-.13.16 1 1 0 00-.07.27.78.78 0 00-.1.15 1.1 1.1 0 00-.09.14v.05a1 1 0 00-.08.14.56.56 0 00-.07.13v.06l-.06.13v.26a.138.138 0 01-.05.13v.19a.2.2 0 000 .07.5.5 0 000 .13v.48a.48.48 0 000 .12v.08a3.57 3.57 0 00-.46.04z"/><path data-name="Path 4" d="M15 7.32a.49.49 0 000 .12v.3a.49.49 0 010 .11v.24l.06.11.06.09.08.11a.27.27 0 00.07.08.4.4 0 00.1.12l.43.42.12.12a.319.319 0 00.08.06.65.65 0 00.16.13l.09.06a1.57 1.57 0 00.26.19 1.53 1.53 0 00.29.18 1.06 1.06 0 001.34-1.64 1.13 1.13 0 00-.35-.2 1.22 1.22 0 00-.19-.12l-.15-.11-.12-.11-.1-.09-.06-.08-.05-.06V7.1a.13.13 0 000-.06v-.16l.05-.1.06-.12a.75.75 0 00.07-.12.6.6 0 00.09-.13.61.61 0 00.1-.14 1 1 0 00.12-.16 1 1 0 00.13-.16.951.951 0 00.11-.15 1.49 1.49 0 00.15-.14 1 1 0 00.12-.16 1.74 1.74 0 00.13-.15 1.77 1.77 0 00.12-.17.65.65 0 00.14-.16l.11-.15a1.21 1.21 0 00.1-.14.6.6 0 00.09-.13.16.16 0 01.07-.13V4.4a.67.67 0 00.06-.12.639.639 0 010-.07.52.52 0 00.06-.13.64.64 0 000-.07v-.18a.79.79 0 000-.13v-.19a.11.11 0 000-.05v-.69a.49.49 0 000-.12.19.19 0 010-.08V2.3a.126.126 0 00-.05-.1.3.3 0 000-.1.53.53 0 00-.06-.1l-.05-.1.16-.34a.61.61 0 00-.07-.1.5.5 0 01-.07-.08.52.52 0 00-.1-.11.3.3 0 00-.08-.08l-.2-.17-.11-.11-.15-.12-.09-.07a1.16 1.16 0 00-.27-.18 1.05 1.05 0 00-.29-.17 1 1 0 00-.31-.16A1.063 1.063 0 0016 1.92a1.23 1.23 0 00.38.19 1.55 1.55 0 00.22.12 1.18 1.18 0 00.19.11.58.58 0 00.15.11l.12.09.08.09a.46.46 0 00.07.07v.2a.25.25 0 000 .07v.09l-.05.1-.06.11-.07.12a.51.51 0 00-.09.13l-.11.15a.72.72 0 00-.11.15.91.91 0 00-.13.16.88.88 0 00-.12.15 1.1 1.1 0 00-.12.14 1.67 1.67 0 00-.12.16 1.945 1.945 0 00-.13.16 1 1 0 00-.12.16 1 1 0 00-.12.16c0 .05-.08.09-.11.15a1.1 1.1 0 00-.09.14v.05a1.1 1.1 0 00-.09.14s-.05.09-.07.13v.06a.75.75 0 00-.06.13v.37a.5.5 0 00-.05.13v.19a.64.64 0 010 .07v.55H15v.3z"/><path data-name="Path 5" d="M21 7.32v.12a.28.28 0 000 .09.35.35 0 000 .11.3.3 0 000 .1.49.49 0 000 .11V8a.41.41 0 00.05.09l.06.11.07.09a.76.76 0 00.08.11l.07.08.1.12.37.42.13.12a.27.27 0 00.08.07.87.87 0 00.15.13l.08.06a1.65 1.65 0 00.27.19 1.08 1.08 0 00.29.18 1.06 1.06 0 001.33-1.64 1 1 0 00-.34-.2 1.22 1.22 0 00-.19-.12.91.91 0 00-.16-.11l-.12-.11-.09-.09-.07-.08v-.38a.24.24 0 000-.08v-.08a1 1 0 010-.1.34.34 0 00.06-.12l.08-.12.09-.13.1-.14a.91.91 0 00.11-.16.65.65 0 00.13-.16.88.88 0 00.12-.15.667.667 0 00.11-.14.91.91 0 00.13-.16.88.88 0 00.12-.15 1 1 0 00.13-.17 1 1 0 00.18-.16.72.72 0 00.11-.15 1.1 1.1 0 00.09-.14.57.57 0 00.08-.13c0-.05.06-.09.07-.13V4.4l.06-.12a.36.36 0 000-.07.5.5 0 00.05-.13.64.64 0 000-.07.56.56 0 000-.12v-.61a.5.5 0 000-.12v-.51a.25.25 0 000-.08v-.06a.45.45 0 000-.11.29.29 0 000-.09.42.42 0 000-.1 1 1 0 000-.1l-.05-.1-.06-.1.13-.35-.08-.1a.5.5 0 00-.07-.08l-.09-.11-.08-.08-.2-.17-.1-.11-.15-.12-.1-.07a1.1 1.1 0 00-.26-.18 1.22 1.22 0 00-.29-.17 1 1 0 00-.31-.16A1.065 1.065 0 1022 1.92a1 1 0 00.38.19 1.55 1.55 0 00.22.12l.18.11.15.11.12.09.09.09.06.07v.15a.09.09 0 000 .05v.16a.31.31 0 000 .1.39.39 0 00-.06.11l-.08.12-.06.22a1.3 1.3 0 00-.1.15 1.58 1.58 0 00-.12.15 1.83 1.83 0 00-.13.16.951.951 0 00-.11.15 1.49 1.49 0 00-.12.14 1.67 1.67 0 00-.12.16.65.65 0 00-.13.16 1 1 0 00-.13.16 1 1 0 00-.12.16.83.83 0 00-.11.15 1.1 1.1 0 00-.09.14v.05a1 1 0 00-.08.14c0 .05-.06.09-.07.13v.06a.75.75 0 00-.06.13v.28a.2.2 0 01-.05.13v.48a.5.5 0 000 .12v.21H21a.48.48 0 000 .12v.18z"/><path data-name="Path 6" d="M34.25 12.2v-1H0v1a17.1 17.1 0 008.16 14.56L3.21 43.2a1 1 0 00.67 1.25.92.92 0 00.29 0 1 1 0 001-.71l2.59-8.6h18l.24.88a4.6 4.6 0 102.47-.73 5.419 5.419 0 00-.58.06l-.26-1v-.13a1 1 0 00-.2-.58l-1.75-6.62a17.12 17.12 0 008.57-14.82zM31 39.87a2.62 2.62 0 11-.764-1.859A2.63 2.63 0 0131 39.87zM2 13.2h30.22A15.13 15.13 0 012 13.2zm23.19 20H8.31L10 27.73a16.95 16.95 0 0013.91.21z"/></g></g></svg>