<svg id="icon-planta" xmlns="http://www.w3.org/2000/svg" width="20" height="20" viewBox="0 0 20 20">
  <path id="Caminho_104" data-name="Caminho 104" d="M69.444,7.222a2.222,2.222,0,1,0-2.222,2.222,2.032,2.032,0,0,0,.911-.2l.756.756h.556v.556H70v.556h.556v.556h1.111V10.556L69.244,8.133A2.032,2.032,0,0,0,69.444,7.222Zm-2.778,0a.556.556,0,1,1,.556-.556A.55.55,0,0,1,66.667,7.222Z" transform="translate(-51.667 -5)"/>
  <path id="Caminho_105" data-name="Caminho 105" d="M15,10.222l1.889-1.889-.778-.778L13.889,9.778v4.111H12.778V15h1.111v1.111H15V15h7.222v8.889H15V18.333H13.889v1.111H9.444v1.111h4.444v3.333H6.111V20.556H7.222V19.444H6.111V15h4.444V13.889H6.111V6.111h7.778V7.222H15V5H5V25H23.333V13.889H15Z" transform="translate(-5 -5)"/>
</svg>
