<svg xmlns="http://www.w3.org/2000/svg" width="25.052" height="19.358" viewBox="0 0 25.052 19.358">
  <path id="icon-construcao" d="M1.588,293.528a.6.6,0,0,0,.6.606H26.043a.6.6,0,0,0,.6-.606V290.5a.6.6,0,0,0-.6-.6h-.6v-1.815h.6a.6.6,0,0,0,.6-.6v-3.023a.6.6,0,0,0-.6-.6h-.6v-2.42a.6.6,0,0,0-.6-.6H20.077V278.4a.6.6,0,0,0-.6-.6H14.71V275.38a.6.6,0,0,0-.6-.6H3.377a.6.6,0,0,0-.6.6V277.8h-.6a.6.6,0,0,0-.6.6v3.025a.6.6,0,0,0,.6.6h.6v1.815h-.6a.6.6,0,0,0-.6.6v3.023a.6.6,0,0,0,.6.6h.6V289.9h-.6a.6.6,0,0,0-.6.6m2.386-14.517h9.543V277.8H3.974Zm-1.193,3.023H8.15v1.815H2.781Zm6.562,0h9.543v1.815H9.343Zm-5.37,3.025h9.543v1.815H3.974Zm10.736,0h9.543v1.815H14.71ZM2.781,285.059H8.15v1.813H2.781Zm6.562,0h9.543v1.813H9.343Zm10.733,0h5.37v1.813h-5.37Zm-16.1,3.023h9.543V289.9H3.974Zm10.736,0h9.543V289.9c-3.192-.01-6.353,0-9.543,0ZM2.781,291.107H8.15v1.815H2.781Zm6.562,0h9.543v1.815H9.343Zm10.733,0h5.37v1.815h-5.37Z" transform="translate(-1.588 -274.775)"/>
</svg>
