<svg id="icon-predio" xmlns="http://www.w3.org/2000/svg" width="20" height="20.209" viewBox="0 0 20 20.209">
  <path id="Caminho_107" data-name="Caminho 107" d="M20.592,3.749H16.2V1.971a.844.844,0,0,0-.841-.841H7.506a.844.844,0,0,0-.841.841V5.618H2.271a.841.841,0,0,0-.841.841V19.035a.491.491,0,0,0,.491.491H20.939a.491.491,0,0,0,.491-.491V4.59a.841.841,0,0,0-.838-.841ZM6.665,18.544H2.412V6.6H6.665Zm8.552,0H7.646V2.112h7.571Zm5.235,0H16.2V4.731h4.253Z" transform="translate(-1.43 -1.13)"/>
  <path id="Caminho_108" data-name="Caminho 108" d="M21.029,59.87H2.171a.491.491,0,0,0,0,.982H21.029a.491.491,0,0,0,0-.982Z" transform="translate(-1.598 -40.643)"/>
  <path id="Caminho_109" data-name="Caminho 109" d="M24.925,14.7h4a.471.471,0,0,0,.471-.468V10.386a2.471,2.471,0,1,0-4.939,0v3.846A.468.468,0,0,0,24.925,14.7Zm3.532-.926H27.393v-2.92h1.064Zm-1.532-4.91a1.535,1.535,0,0,1,1.46,1.064H25.468A1.529,1.529,0,0,1,26.925,8.864Zm-1.532,2h1.064v2.91H25.393Z" transform="translate(-16.924 -5.634)"/>
  <path id="Caminho_110" data-name="Caminho 110" d="M23.54,34.664h1.083a.74.74,0,0,0,.74-.74V32.75a.74.74,0,0,0-.74-.75H23.54a.74.74,0,0,0-.74.74v1.175a.74.74,0,0,0,.74.75Zm.079-1.836h.926v1.018h-.926Z" transform="translate(-15.809 -21.896)"/>
  <path id="Caminho_111" data-name="Caminho 111" d="M34.11,32a.74.74,0,0,0-.74.74v1.175a.74.74,0,0,0,.74.74h1.083a.74.74,0,0,0,.74-.74V32.75a.74.74,0,0,0-.74-.75Zm1,1.836h-.926V32.828h.926Z" transform="translate(-22.921 -21.896)"/>
  <path id="Caminho_112" data-name="Caminho 112" d="M23.54,45.985h1.083a.74.74,0,0,0,.74-.74V44.07a.74.74,0,0,0-.74-.74H23.54a.74.74,0,0,0-.74.74v1.175A.74.74,0,0,0,23.54,45.985Zm.079-1.836h.926v1.018h-.926Z" transform="translate(-15.809 -29.517)"/>
  <path id="Caminho_113" data-name="Caminho 113" d="M35.193,43.33H34.11a.74.74,0,0,0-.74.74v1.175a.74.74,0,0,0,.74.74h1.083a.74.74,0,0,0,.74-.74V44.07A.74.74,0,0,0,35.193,43.33Zm-.079,1.836h-.926V44.148h.926Z" transform="translate(-22.921 -29.517)"/>
  <path id="Caminho_114" data-name="Caminho 114" d="M7.6,23.395H8.683a.74.74,0,0,0,.74-.736V21.486a.74.74,0,0,0-.74-.736H7.6a.736.736,0,0,0-.736.736v1.178A.736.736,0,0,0,7.6,23.395Zm.082-1.833H8.6v1.015H7.678Z" transform="translate(-5.083 -14.328)"/>
  <path id="Caminho_115" data-name="Caminho 115" d="M7.6,34.664H8.683a.743.743,0,0,0,.74-.74V32.75a.74.74,0,0,0-.74-.75H7.6a.74.74,0,0,0-.736.74v1.175a.74.74,0,0,0,.736.75Zm.082-1.836H8.6v1.018H7.678Z" transform="translate(-5.083 -21.896)"/>
  <path id="Caminho_116" data-name="Caminho 116" d="M7.6,45.985H8.683a.74.74,0,0,0,.74-.74V44.07a.74.74,0,0,0-.74-.74H7.6a.74.74,0,0,0-.736.74v1.175a.74.74,0,0,0,.736.74Zm.082-1.836H8.6v1.018H7.678Z" transform="translate(-5.083 -29.517)"/>
  <path id="Caminho_117" data-name="Caminho 117" d="M49.89,23.395h1.083a.74.74,0,0,0,.746-.736V21.486a.74.74,0,0,0-.74-.736H49.89a.74.74,0,0,0-.74.736v1.178A.74.74,0,0,0,49.89,23.395Zm.079-1.833h.926v1.015h-.926Z" transform="translate(-33.539 -14.328)"/>
  <path id="Caminho_118" data-name="Caminho 118" d="M49.89,34.664h1.083a.74.74,0,0,0,.746-.74V32.75a.74.74,0,0,0-.746-.75H49.89a.74.74,0,0,0-.74.74v1.175a.74.74,0,0,0,.74.75Zm.079-1.836h.926v1.018h-.926Z" transform="translate(-33.539 -21.895)"/>
  <path id="Caminho_119" data-name="Caminho 119" d="M49.89,45.985h1.083a.74.74,0,0,0,.746-.74V44.07a.74.74,0,0,0-.74-.74H49.89a.74.74,0,0,0-.74.74v1.175A.74.74,0,0,0,49.89,45.985Zm.079-1.836h.926v1.018h-.926Z" transform="translate(-33.539 -29.517)"/>
</svg>
