<svg id="icon-pronto" xmlns="http://www.w3.org/2000/svg" width="20" height="21.834" viewBox="0 0 20 21.834">
  <path id="Caminho_135" data-name="Caminho 135" d="M9.7,43.023l.336.753a.868.868,0,0,0,.482.456l.595.217-.18.495a.966.966,0,0,0,.558,1.248l.484.185-.217.593a.868.868,0,0,0,.017.664l.287.651a.816.816,0,0,0,.454.434l1.843.706a.729.729,0,0,0,.916-.434l.708-1.843a.823.823,0,0,0-.017-.625l-2.336-5.253a4.94,4.94,0,0,0,.358-.493.543.543,0,0,0-.92-.575,3.745,3.745,0,0,1-.469.6.543.543,0,0,0-.1.6l2.44,5.453-.541,1.407-1.407-.538-.2-.456.345-.9a.666.666,0,0,0-.384-.868l-.764-.293.3-.738a.666.666,0,0,0-.384-.868l-.9-.347-.434-.99a.536.536,0,0,0-.514-.321,3.729,3.729,0,0,1-3.449-5.425.545.545,0,1,0-.973-.493,4.815,4.815,0,0,0,4.081,7Z" transform="translate(-5.092 -27.63)"/>
  <path id="Caminho_136" data-name="Caminho 136" d="M17.8,11.017a5.761,5.761,0,0,0,5.948.124l.86.547a.954.954,0,0,0,.686.135h.022l.818-.165.143.664a1.059,1.059,0,0,0,1.253.8l.684-.139.168.788a.918.918,0,0,0,.4.58h0l.695.434a.9.9,0,0,0,.482.141.919.919,0,0,0,.181-.017l2.29-.452a.758.758,0,0,0,.6-.9l-.476-2.225a.855.855,0,0,0-.382-.543L26.444,7.138A5.461,5.461,0,0,0,22.411,1.2a5.669,5.669,0,0,0-6.645,2.981A5.371,5.371,0,0,0,17.8,11.017Zm-.688-6.96A4.568,4.568,0,0,1,22.57,2.4,4.347,4.347,0,0,1,25.287,7.29a.536.536,0,0,0,.241.558l5.957,3.8.389,1.808-1.861.378-.554-.352-.239-1.118a.684.684,0,0,0-.306-.438.721.721,0,0,0-.536-.094l-1.03.217-.223-1a.684.684,0,0,0-.3-.433.721.721,0,0,0-.53-.1l-1.137.224-1.1-.7a.572.572,0,0,0-.623,0,4.6,4.6,0,0,1-5.7-.468,4.281,4.281,0,0,1-.626-5.521Z" transform="translate(-13.051 -0.993)"/>
  <path id="Caminho_137" data-name="Caminho 137" d="M27.993,17.924a1.678,1.678,0,0,0,.927.278,1.71,1.71,0,0,0,.347-.037A1.689,1.689,0,1,0,28,17.924Zm.421-1.737a.6.6,0,0,1,.382-.26.612.612,0,0,1,.124-.013.6.6,0,0,1,.5.936h0a.6.6,0,0,1-1.009-.651Z" transform="translate(-22.278 -11.82)"/>
</svg>
