<?xml version="1.0" encoding="utf-8"?>
<!-- Generator: Adobe Illustrator 23.0.3, SVG Export Plug-In . SVG Version: 6.00 Build 0)  -->
<svg version="1.1" id="logo" xmlns="http://www.w3.org/2000/svg" xmlns:xlink="http://www.w3.org/1999/xlink" x="0px" y="0px"
	 viewBox="0 0 132.9 30.3" style="enable-background:new 0 0 132.9 30.3;" xml:space="preserve">
<style type="text/css">
	.st0{enable-background:new    ;}
	.st1{fill:#FFFFFF;}
	.st2{fill:#FFFFFF;}
	.st3{fill:#FFFFFF;}
</style>
<g class="st0">
	<path class="st1" d="M39.2,10.4V26h-4.3V10.4h-6v-4h16.2v4H39.2z"/>
	<path class="st1" d="M60.3,26l-4.2-6.3h-3.4V26h-4.3V6.4h9c4.6,0,7.4,2.4,7.4,6.5v0.1c0,3.2-1.7,5.2-4.2,6.1l4.8,7H60.3z
		 M60.4,13.1c0-1.8-1.3-2.8-3.4-2.8h-4.3v5.6h4.4C59.2,15.9,60.4,14.8,60.4,13.1L60.4,13.1z"/>
	<path class="st1" d="M68.9,26V6.4h4.3V26H68.9z"/>
	<path class="st1" d="M85,26.3c-3,0-6-1-8.3-3.1l2.5-3.1c1.8,1.5,3.6,2.4,5.9,2.4c1.8,0,2.8-0.7,2.8-1.8v-0.1c0-1.1-0.7-1.7-3.9-2.5
		c-3.9-1-6.5-2.1-6.5-6V12c0-3.6,2.9-5.9,6.9-5.9c2.9,0,5.3,0.9,7.3,2.5l-2.2,3.2c-1.7-1.2-3.4-1.9-5.1-1.9s-2.5,0.8-2.5,1.7v0.1
		c0,1.3,0.8,1.7,4.2,2.6c4,1,6.2,2.5,6.2,5.9v0.1C92.2,24.1,89.3,26.3,85,26.3z"/>
	<path class="st1" d="M104.2,26.3c-5.3,0-8.5-2.9-8.5-8.7V6.4h4.3v11.1c0,3.2,1.6,4.8,4.2,4.8s4.2-1.6,4.2-4.7V6.4h4.3v11.1
		C112.8,23.4,109.4,26.3,104.2,26.3z"/>
	<path class="st1" d="M117.2,26V6.4h4.3v15.7h9.8V26H117.2z"/>
</g>
<g>
	<polygon class="st2" points="19.4,10.3 2.7,10.3 2.7,6.4 24.5,6.4 	"/>
	<polygon class="st2" points="10.5,19.2 2.7,19.2 2.7,14.2 15.4,14.2 	"/>
	<polygon class="st2" points="5.1,24.6 2.7,27.1 2.7,22.2 7.6,22.2 	"/>
	<polygon class="st3" points="2.7,27.1 7.6,22.2 7.5,28 2.7,28.1 	"/>
	<polygon class="st3" points="10.5,19.2 15.4,14.2 15.4,28.1 10.5,28.1 	"/>
	<polygon class="st3" points="24.5,6.4 19.4,10.3 19.4,28.1 24.4,28.1 	"/>
</g>
</svg>
