<svg xmlns="http://www.w3.org/2000/svg" width="13.433" height="14" viewBox="0 0 13.433 14"><defs><style>.a{fill:#001640;}</style></defs><g transform="translate(0 0)"><g transform="translate(0 0)"><g transform="translate(0)"><path class="a" d="M23.145,7.179a.41.41,0,0,1,0-.363l.522-1.068a1.215,1.215,0,0,0-.524-1.614l-1.05-.557a.41.41,0,0,1-.213-.293l-.205-1.171a1.215,1.215,0,0,0-1.373-1l-1.177.167a.41.41,0,0,1-.345-.112L17.924.343a1.215,1.215,0,0,0-1.7,0l-.855.827a.41.41,0,0,1-.345.112l-1.177-.167a1.215,1.215,0,0,0-1.373,1l-.205,1.171a.41.41,0,0,1-.213.293l-1.05.557a1.215,1.215,0,0,0-.524,1.614l.522,1.068a.41.41,0,0,1,0,.363l-.522,1.068a1.215,1.215,0,0,0,.524,1.614l1.05.557a.41.41,0,0,1,.213.293l.205,1.171a1.215,1.215,0,0,0,1.2,1.01,1.248,1.248,0,0,0,.175-.012l1.177-.167a.41.41,0,0,1,.345.112l.855.827a1.215,1.215,0,0,0,1.7,0l.855-.827a.411.411,0,0,1,.345-.112l1.177.167a1.215,1.215,0,0,0,1.373-1l.205-1.171a.41.41,0,0,1,.213-.293l1.05-.557a1.215,1.215,0,0,0,.524-1.614ZM15.461,3.365a1.48,1.48,0,1,1-1.48,1.48A1.482,1.482,0,0,1,15.461,3.365ZM14.7,9.948a.4.4,0,0,1-.571-.571l5.329-5.329a.4.4,0,0,1,.571.571Zm3.994.684a1.48,1.48,0,1,1,1.48-1.48A1.482,1.482,0,0,1,18.691,10.632Z" transform="translate(-10.359 0.002)"/></g></g><g transform="translate(7.54 8.355)"><path class="a" d="M291.218,310.141a.766.766,0,1,0,.766.766A.767.767,0,0,0,291.218,310.141Z" transform="translate(-290.452 -310.141)"/></g><g transform="translate(4.36 4.112)"><path class="a" d="M173.1,152.646a.766.766,0,1,0,.766.766A.767.767,0,0,0,173.1,152.646Z" transform="translate(-172.333 -152.646)"/></g></g></svg>