<svg xmlns="http://www.w3.org/2000/svg" width="150" height="24.75" viewBox="0 0 28450.4 4787" shape-rendering="geometricPrecision" text-rendering="geometricPrecision" image-rendering="optimizeQuality" fill-rule="evenodd" clip-rule="evenodd"><path d="M7262.47 4345.07h1181.44V1117.43h1278.88V82.15H5983.6v1035.28h1278.87v3227.64zm2977.96 0h1181.44V3054.01h517.64l858.68 1291.06h1364.13l-1017.01-1485.93c529.82-225.33 876.94-657.71 876.94-1309.33v-12.18c0-420.2-127.88-749.06-377.57-992.65-286.22-292.32-736.87-462.83-1388.49-462.83h-2015.76v4262.92zm1181.44-2216.72v-1023.1h773.42c395.84 0 639.44 170.52 639.44 505.46v12.18c0 310.58-231.42 505.46-633.35 505.46h-779.51zm3221.55 2216.72h1187.53V82.15h-1187.53v4262.92zm3641.75 73.08c1035.28 0 1723.44-517.64 1723.44-1388.5v-12.18c0-797.77-608.99-1114.45-1589.46-1327.59-590.72-133.98-736.88-219.24-736.88-414.11v-12.18c0-152.25 140.07-274.05 426.3-274.05 377.57 0 803.86 146.16 1193.61 420.2l590.72-834.31C19430.07 203.94 18863.71 9.07 18139.02 9.07c-1023.11 0-1650.36 572.45-1650.36 1364.13v12.18c0 876.95 700.33 1132.72 1607.73 1339.78 578.54 133.98 718.6 231.42 718.6 408.02v12.18c0 182.7-170.51 292.32-487.19 292.32-493.28 0-962.2-176.61-1382.4-511.55l-657.71 785.59c523.73 468.92 1242.34 706.43 1997.48 706.43zm4214.21 6.09c1211.89 0 1997.48-602.9 1997.48-1979.22V82.15h-1199.71v2399.41c0 596.81-310.58 876.95-785.59 876.95-475.01 0-785.6-292.32-785.6-907.4V82.15h-1199.71v2393.32c0 1333.69 761.24 1948.77 1973.13 1948.77zm2697.82-79.17h3245.91V3309.79h-2064.47V82.15H25197.2v4262.92z" fill="#001640" fill-rule="nonzero"/><path d="M3769.36 1042.45v3747.11h1048.05V2.58zM1986.07 4789.56H3050V1756.19L1986.07 2811.81zm-1993.32 0h1354.67V3445.47z" fill="#c79116"/><path d="M-7.25 1042.45h3776.61L4817.41 2.58H-7.25zm0 1769.36h1993.32L3050 1756.19H-7.25zm0 1977.75l1354.67-1344.09H-7.25z" fill="#ffcb31"/></svg>